<svg xmlns="http://www.w3.org/2000/svg" xmlns:svgjs="http://svgjs.dev/svgjs" xmlns:xlink="http://www.w3.org/1999/xlink" width="100%" height="100%" version="1.1" viewBox="0 0 1000 600"><rect width="1000" height="600" x="0" y="0" fill="#00000"/><g><rect width="333.333" height="333.333" x="188.769" y="210.991" fill="#ffff" transform="matrix(0.6621857756589175,0,0,0.6621857756589176,0,49.92046541723964)"/><path fill="#00000" d="M228.1694692403388 452.6576719877005L228.1694692403388 320.7111631505389L238.42206958917228 320.7111631505389L241.31954360079914 327.1747590226296Q252.24079179846962 319.5967500691439 265.39086615892995 319.5967500691439L265.39086615892995 319.5967500691439Q277.8722926705534 319.5967500691439 286.56471470543397 324.9459328598397L286.56471470543397 324.9459328598397Q305.06397185659006 336.5358289063471 305.06397185659006 362.6130950109889L305.06397185659006 362.6130950109889Q305.06397185659006 384.9013566388878 292.58254534496666 396.9370179179532L292.58254534496666 396.9370179179532Q280.3240014496223 408.5269139644606 263.3849226124191 408.5269139644606L263.3849226124191 408.5269139644606Q252.4636744147486 408.5269139644606 242.65683929847307 404.2921442551599L242.65683929847307 404.2921442551599L242.65683929847307 452.6576719877005L228.1694692403388 452.6576719877005ZM261.82474429846616 331.63241134820936Q255.58403104265446 331.63241134820936 251.47308500906422 332.7468244296043Q247.33737424033185 333.8612375109993 242.65683929847307 336.75871152262613L242.65683929847307 336.75871152262613L242.65683929847307 392.9251308249314Q251.34926133335367 396.9370179179532 261.6018616821872 396.9370179179532L261.6018616821872 396.9370179179532Q274.97481865892655 396.9370179179532 282.3299449961331 387.7988306505147Q289.6850713333398 378.6606433830761 289.6850713333398 364.17327332494176L289.6850713333398 364.17327332494176Q289.6850713333398 349.2401380342495 282.55282761241216 340.4486570588005Q275.4205838914845 331.63241134820936 261.82474429846616 331.63241134820936L261.82474429846616 331.63241134820936ZM319.99710714728235 312.6873889644953Q328.9124117984419 307.7839714063575 335.920831843659 305.23320368672023Q342.9540166240182 302.65767123194075 353.6523822054097 302.65767123194075L353.6523822054097 302.65767123194075Q361.0075085426164 302.65767123194075 368.0406933229756 305.8770868004151Q375.0491133681927 309.12126710403146 379.630589369483 315.9315692681117Q384.18730063563123 322.7171066970498 384.18730063563123 332.30105919704636L384.18730063563123 332.30105919704636Q384.18730063563123 343.8909552435538 378.491411552946 353.0291425109923Q372.8202872054028 362.1673297784309 359.6702128449424 375.76316937144924L359.6702128449424 375.76316937144924L342.28536877518127 394.03954390632634L384.8559484844682 394.03954390632634L384.8559484844682 406.29808780167076L322.44881592635124 406.29808780167076L322.44881592635124 396.7141353016742Q333.5929467403007 384.00982617377184 346.74302110076104 370.4139865807535L346.74302110076104 370.4139865807535Q356.1040909844786 360.60715146447797 356.9956214495945 359.492738383083L356.9956214495945 359.492738383083Q365.68804348447514 349.4630206505285 368.36263487982296 344.11383785983276Q371.03722627517084 338.764655069137 371.03722627517084 332.30105919704636L371.03722627517084 332.30105919704636Q371.03722627517084 324.5001676272817 365.9109261007541 320.04251530170194Q360.7846259263374 315.58486297612217 351.6464386588988 315.58486297612217L351.6464386588988 315.58486297612217Q344.73707755425016 315.58486297612217 339.95748367182296 317.2688649657856Q335.1531250542536 318.928102220307 331.0421790206634 321.1569283830969Q326.906468251931 323.3857545458868 324.90052470542014 324.27728501100273L324.90052470542014 324.27728501100273L319.99710714728235 312.6873889644953ZM405.8069144146932 452.6576719877005L405.8069144146932 320.7111631505389L416.05951476352675 320.7111631505389L418.9569887751536 327.1747590226296Q429.878236972824 319.5967500691439 443.0283113332844 319.5967500691439L443.0283113332844 319.5967500691439Q455.5097378449078 319.5967500691439 464.2021598797884 324.9459328598397L464.2021598797884 324.9459328598397Q482.7014170309444 336.5358289063471 482.7014170309444 362.6130950109889L482.7014170309444 362.6130950109889Q482.7014170309444 384.9013566388878 470.2199905193211 396.9370179179532L470.2199905193211 396.9370179179532Q457.9614466239767 408.5269139644606 441.0223677867735 408.5269139644606L441.0223677867735 408.5269139644606Q430.10111958910306 408.5269139644606 420.2942844728275 404.2921442551599L420.2942844728275 404.2921442551599L420.2942844728275 452.6576719877005L405.8069144146932 452.6576719877005ZM439.46218947282057 331.63241134820936Q433.2214762170089 331.63241134820936 429.0857654482765 332.7468244296043Q424.9748194146863 333.8612375109993 420.2942844728275 336.75871152262613L420.2942844728275 336.75871152262613L420.2942844728275 392.9251308249314Q428.98670650770805 396.9370179179532 439.2393068565416 396.9370179179532L439.2393068565416 396.9370179179532Q452.61226383328085 396.9370179179532 459.96739017048753 387.7988306505147Q467.3225165076942 378.6606433830761 467.3225165076942 364.17327332494176L467.3225165076942 364.17327332494176Q467.3225165076942 349.2401380342495 460.1902727867665 340.4486570588005Q453.0580290658389 331.63241134820936 439.46218947282057 331.63241134820936L439.46218947282057 331.63241134820936Z" transform="matrix(0.6621857756589175,0,0,0.6621857756589176,0,49.92046541723964)"/><path fill="#fff" d="M605.4354451454436 452.65767322367424L605.4354451454436 332.6576704743428L614.7597696833984 332.6576704743428L617.3949048789075 338.5360489874013Q627.3273375389027 331.6441569376086 639.2867972723666 331.6441569376086L639.2867972723666 331.6441569376086Q650.6381488837898 331.6441569376086 658.5435544703166 336.5090219139328L658.5435544703166 336.5090219139328Q675.3678791801046 347.0495626959687 675.3678791801046 370.76577945554936L675.3678791801046 370.76577945554936Q675.3678791801046 391.03605019023377 664.0165275686815 401.9819963869633L664.0165275686815 401.9819963869633Q652.8678786646051 412.5225371689992 637.462472906245 412.5225371689992L637.462472906245 412.5225371689992Q627.5300402462497 412.5225371689992 618.6111211229885 408.67118572940916L618.6111211229885 408.67118572940916L618.6111211229885 452.65767322367424L605.4354451454436 452.65767322367424ZM636.0435539548171 342.5901031343381Q630.3678781491053 342.5901031343381 626.6291393247081 343.60361667107236Q622.8678779772722 344.61713020780655 618.6111211229885 347.25226540331556L618.6111211229885 347.25226540331556L618.6111211229885 398.3333476547201Q626.5165267095153 401.9819963869633 635.8408512474703 401.9819963869633L635.8408512474703 401.9819963869633Q648.0030136882808 401.9819963869633 654.6922030307267 393.6711853857427Q661.3813923731725 385.3603743845222 661.3813923731725 372.1846984069773L661.3813923731725 372.1846984069773Q661.3813923731725 358.6036170147388 654.8949057380735 350.6081213360577Q648.4084191029744 342.5901031343381 636.0435539548171 342.5901031343381L636.0435539548171 342.5901031343381ZM707.394906940906 382.72523918901317Q707.394906940906 392.6576718490085 711.246258380496 396.91442870329223Q715.097609820086 401.17118555757594 724.4219343580409 401.17118555757594L724.4219343580409 401.17118555757594Q733.9489616033426 401.17118555757594 745.7057186294595 395.69821245921116L745.7057186294595 395.69821245921116L745.7057186294595 332.6576704743428L758.8813946070042 332.6576704743428L758.8813946070042 410.49551009553073L749.7597727763963 410.49551009553073L746.9219348735404 404.81983428981914Q732.124637237221 412.5225371689992 719.5570693817166 412.5225371689992L719.5570693817166 412.5225371689992Q707.394906940906 412.5225371689992 700.7958076906142 405.42794241185965Q694.2192309633612 398.3333476547201 694.2192309633612 385.9684825065627L694.2192309633612 385.9684825065627L694.2192309633612 332.6576704743428L707.394906940906 332.6576704743428L707.394906940906 382.72523918901317ZM805.9084227114721 401.17118555757594Q813.0030174686116 401.17118555757594 817.9579725370899 398.4459602699128Q822.9354501286069 395.69821245921116 822.9354501286069 390.42794206819326L822.9354501286069 390.42794206819326Q822.9354501286069 386.1711852139095 819.2868013963638 383.7387527257474Q815.6381526641204 381.3063202375853 803.8813956380035 376.441455261261L803.8813956380035 376.441455261261L796.1786927588236 373.4009146510584Q791.1111250751525 370.96848216289624 787.867881757603 369.0540677046205Q784.6246384400534 367.1171307233062 781.9895032445444 363.1531666685235Q779.3543680490355 359.2117251367793 779.3543680490355 353.13064391637397L779.3543680490355 353.13064391637397Q779.3543680490355 342.1846977196444 788.3633772644508 336.9144273286265Q797.3949090029047 331.6441569376086 810.5705849804493 331.6441569376086L810.5705849804493 331.6441569376086Q821.7192338845258 331.6441569376086 832.8678827886023 336.7117246212797L832.8678827886023 336.7117246212797L829.6246394710528 346.4414545739281Q820.5030176404447 342.5901031343381 811.9895039318773 342.5901031343381L811.9895039318773 342.5901031343381Q803.273287515963 342.5901031343381 797.8904045097523 345.13514823769293Q792.5300440265804 347.6576708180092 792.5300440265804 352.31983308698665L792.5300440265804 352.31983308698665Q792.5300440265804 356.98199535596405 796.2687828509776 359.617130551473Q800.0300441984135 362.25226574698195 809.1516660290214 365.6982117718783L809.1516660290214 365.6982117718783L815.8408553714675 368.3333469673873Q826.9895042755437 372.9955092363647 831.4489638371743 378.06307692003577Q835.9084233988048 383.13064460370686 835.9084233988048 391.44145560492746L835.9084233988048 391.44145560492746Q835.9084233988048 399.95496931349487 828.003017812278 406.14866314909284Q820.097612225751 412.31983446165236 806.9219362482062 412.31983446165236L806.9219362482062 412.31983446165236Q791.9219359045397 412.31983446165236 777.3273409755672 406.4414559485939L777.3273409755672 406.4414559485939L780.9759897078103 396.50902328859854Q794.1516656853552 401.17118555757594 805.9084227114721 401.17118555757594L805.9084227114721 401.17118555757594ZM908.475992628975 360.6306440882072Q908.475992628975 350.6982114282119 904.624641189385 346.2387518665813Q900.7732897497948 341.77929230495073 891.2462625044933 341.77929230495073L891.2462625044933 341.77929230495073Q882.327343381232 341.77929230495073 870.3678836477683 347.4549681106624L870.3678836477683 347.4549681106624L870.3678836477683 410.49551009553073L857.1922076702234 410.49551009553073L857.1922076702234 302.6576697870099L870.3678836477683 302.6576697870099L870.3678836477683 337.7252381580139Q883.9489650400068 330.63064340087436 896.3138301881644 330.63064340087436L896.3138301881644 330.63064340087436Q908.475992628975 330.63064340087436 915.1651819714208 337.815328250168Q921.8543713138666 345.02253562250024 921.8543713138666 357.59010347800455L921.8543713138666 357.59010347800455L921.8543713138666 410.49551009553073L908.475992628975 410.49551009553073L908.475992628975 360.6306440882072ZM938.2732906089608 325.3603730098564Q946.3813989028346 320.9009134482259 952.755272922741 318.58109357525643Q959.1516694656858 316.2387511792484 968.8813994183344 316.2387511792484L968.8813994183344 316.2387511792484Q975.5705887607802 316.2387511792484 981.9444627806864 319.16667917425843Q988.3408593236312 322.1171296923069 992.4850035627222 328.3108235279049Q996.6516703248518 334.4819948404644 996.6516703248518 343.19821125637867L996.6516703248518 343.19821125637867Q996.6516703248518 353.73875203841453 991.4714900259881 362.04956303963513Q986.3138322501628 370.36037404085573 974.3543725166991 382.72523918901317L974.3543725166991 382.72523918901317L958.5435613436454 399.3468611914543L997.2597784468925 399.3468611914543L997.2597784468925 410.49551009553073L940.5030203897762 410.49551009553073L940.5030203897762 401.77929367961644Q950.6381557571184 390.2252393608464 962.5976154905821 377.86037421268895L962.5976154905821 377.86037421268895Q971.1111291991496 368.9414550894278 971.9219400285368 367.9279415526936L971.9219400285368 367.9279415526936Q979.8273456150638 358.8063197220856 982.259778103226 353.94145474576135Q984.6922105913881 349.07658976943713 984.6922105913881 343.19821125637867L984.6922105913881 343.19821125637867Q984.6922105913881 336.10361649923914 980.0300483224106 332.04956235230225Q975.3678860534332 327.99550820536535 967.0570750522128 327.99550820536535L967.0570750522128 327.99550820536535Q960.7732911244606 327.99550820536535 956.4039216549842 329.527039771986Q952.0570747085463 331.03604881556805 948.2958133611104 333.06307588903644Q944.557074536713 335.09010296250494 942.7327501705914 335.9009137918923L942.7327501705914 335.9009137918923L938.2732906089608 325.3603730098564ZM1016.3138329374957 452.65767322367424L1016.3138329374957 332.6576704743428L1025.6381574754505 332.6576704743428L1028.2732926709596 338.5360489874013Q1038.205725330955 331.6441569376086 1050.1651850644184 331.6441569376086L1050.1651850644184 331.6441569376086Q1061.516536675842 331.6441569376086 1069.4219422623687 336.5090219139328L1069.4219422623687 336.5090219139328Q1086.2462669721567 347.0495626959687 1086.2462669721567 370.76577945554936L1086.2462669721567 370.76577945554936Q1086.2462669721567 391.03605019023377 1074.8949153607336 401.9819963869633L1074.8949153607336 401.9819963869633Q1063.746266456657 412.5225371689992 1048.340860698297 412.5225371689992L1048.340860698297 412.5225371689992Q1038.4084280383017 412.5225371689992 1029.4895089150405 408.67118572940916L1029.4895089150405 408.67118572940916L1029.4895089150405 452.65767322367424L1016.3138329374957 452.65767322367424ZM1046.921941746869 342.5901031343381Q1041.2462659411576 342.5901031343381 1037.4850045937214 343.60361667107236Q1033.746265769324 344.61713020780655 1029.4895089150405 347.25226540331556L1029.4895089150405 347.25226540331556L1029.4895089150405 398.3333476547201Q1037.3949145015672 401.9819963869633 1046.719239039522 401.9819963869633L1046.719239039522 401.9819963869633Q1058.881401480333 401.9819963869633 1065.5705908227787 393.6711853857427Q1072.2597801652246 385.3603743845222 1072.2597801652246 372.1846984069773L1072.2597801652246 372.1846984069773Q1072.2597801652246 358.6036170147388 1065.7732935301256 350.6081213360577Q1059.2868068950265 342.5901031343381 1046.921941746869 342.5901031343381L1046.921941746869 342.5901031343381ZM1138.7462681749894 331.6441569376086Q1143.2057277366198 331.6441569376086 1145.9309530242826 332.16217496749493Q1148.6787008349847 332.6576704743428 1151.3138360304933 333.8738867184238L1151.3138360304933 333.8738867184238L1146.6516737615161 345.6306437445408Q1141.3814033704984 343.19821125637867 1135.0976194427458 343.19821125637867L1135.0976194427458 343.19821125637867Q1126.5841057341786 343.19821125637867 1118.2732947329582 348.87388706209026L1118.2732947329582 348.87388706209026L1118.2732947329582 410.49551009553073L1105.0976187554134 410.49551009553073L1105.0976187554134 332.6576704743428L1114.624646000715 332.6576704743428L1117.4624839035705 339.34685981678865Q1127.5976192709127 331.6441569376086 1138.7462681749894 331.6441569376086L1138.7462681749894 331.6441569376086ZM1198.1381614276142 412.31983446165236Q1180.503025888439 412.31983446165236 1170.6832058436362 401.3738882649228Q1160.840863275795 390.42794206819326 1160.840863275795 371.9819956996305L1160.840863275795 371.9819956996305Q1160.840863275795 353.33334662372084 1170.8633860279447 342.4774905191454Q1180.9084313031326 331.6441569376086 1198.7462695496547 331.6441569376086L1198.7462695496547 331.6441569376086Q1216.5841077961772 331.6441569376086 1226.3138377488258 342.3874004269913Q1236.0435677014739 353.13064391637397 1236.0435677014739 371.7792929922836L1236.0435677014739 371.7792929922836Q1236.0435677014739 390.0225366534995 1225.9084323341322 401.17118555757594Q1215.77329696679 412.31983446165236 1198.1381614276142 412.31983446165236L1198.1381614276142 412.31983446165236ZM1198.7462695496547 341.9819950122976Q1187.1922152308848 341.9819950122976 1180.8183412109784 350.495508720865Q1174.4219446680336 359.00902242943243 1174.4219446680336 371.9819956996305L1174.4219446680336 371.9819956996305Q1174.4219446680336 384.9549689698284 1180.8183412109784 393.265779971049Q1187.1922152308848 401.5765909722696 1198.7462695496547 401.5765909722696L1198.7462695496547 401.5765909722696Q1210.0976211610782 401.5765909722696 1216.3814050888304 393.1756898788949Q1222.6651890165826 384.7522662624816 1222.6651890165826 371.9819956996305L1222.6651890165826 371.9819956996305Q1222.6651890165826 359.00902242943243 1216.2913149966762 350.495508720865Q1209.8949184537314 341.9819950122976 1198.7462695496547 341.9819950122976L1198.7462695496547 341.9819950122976ZM1287.5300553675725 412.1171317543055Q1270.097622535744 412.1171317543055 1260.773297997789 401.2837981727686Q1251.4489734598342 390.42794206819326 1251.4489734598342 372.3874011143241L1251.4489734598342 372.3874011143241Q1251.4489734598342 352.52253579433346 1262.597622363911 341.37388689025704L1262.597622363911 341.37388689025704Q1273.3408658532935 331.03604881556805 1289.3543797336938 331.03604881556805L1289.3543797336938 331.03604881556805Q1300.0976232230769 331.03604881556805 1307.59762339491 334.68469754781125L1307.59762339491 334.68469754781125L1307.59762339491 302.6576697870099L1321.3814074944953 302.6576697870099L1321.3814074944953 410.49551009553073L1311.6516775418468 410.49551009553073L1309.4219477610318 405.02253699716596Q1298.476001564302 412.1171317543055 1287.5300553675725 412.1171317543055L1287.5300553675725 412.1171317543055ZM1290.1651905630815 400.96848285022907Q1295.638163661446 400.96848285022907 1299.3769024858434 399.86487922134074Q1303.1381638332796 398.7387530694138 1307.59762339491 396.30632058125167L1307.59762339491 396.30632058125167L1307.59762339491 344.8198329151534Q1300.0976232230769 341.77929230495073 1290.3678932704283 341.77929230495073L1290.3678932704283 341.77929230495073Q1277.800325414924 341.77929230495073 1271.4264513950175 349.8874005988245Q1265.0300548520727 357.99550889269824 1265.0300548520727 371.57659028493674L1265.0300548520727 371.57659028493674Q1265.0300548520727 384.9549689698284 1271.4264513950175 392.9504646485095Q1277.800325414924 400.96848285022907 1290.1651905630815 400.96848285022907L1290.1651905630815 400.96848285022907Z" transform="matrix(0.6621857756589175,0,0,0.6621857756589176,0,49.92046541723964)"/></g></svg>